<?xml version="1.0" standalone="no"?>
<!DOCTYPE svg PUBLIC "-//W3C//DTD SVG 20010904//EN"
 "http://www.w3.org/TR/2001/REC-SVG-20010904/DTD/svg10.dtd">
<svg version="1.0" xmlns="http://www.w3.org/2000/svg"
 width="512.000000pt" height="512.000000pt" viewBox="0 0 512.000000 512.000000"
 preserveAspectRatio="xMidYMid meet">

<g transform="translate(0.000000,512.000000) scale(0.100000,-0.100000)"
fill="#000000" stroke="none">
<path d="M2373 4980 c-310 -67 -560 -266 -690 -548 -40 -87 -83 -245 -83 -308
l0 -44 -335 0 c-184 0 -335 -1 -335 -2 0 -2 -67 -889 -150 -1973 -82 -1084
-150 -1973 -150 -1977 0 -5 868 -8 1930 -8 1062 0 1930 3 1930 8 0 4 -70 891
-155 1971 -85 1080 -155 1968 -155 1972 0 5 -148 9 -329 9 l-328 0 -6 63 c-24
248 -169 501 -377 659 -87 66 -245 143 -350 168 -126 32 -299 35 -417 10z
m402 -220 c279 -87 496 -337 533 -614 l9 -66 -757 0 -757 0 9 66 c41 301 281
557 593 630 89 20 280 12 370 -16z m-1183 -1232 l3 -343 103 -3 102 -3 0 346
0 345 760 0 760 0 0 -345 0 -346 103 3 102 3 3 343 2 342 237 -2 237 -3 133
-1730 c73 -952 132 -1747 133 -1767 l0 -38 -1705 0 c-1617 0 -1705 1 -1705 18
0 33 260 3457 266 3490 l5 32 229 0 230 0 2 -342z"/>
</g>
</svg>
