<svg id="svg" version="1.1" xmlns="http://www.w3.org/2000/svg" xmlns:xlink="http://www.w3.org/1999/xlink" width="400" height="683.7209302325582" viewBox="0, 0, 400,683.7209302325582"><g id="svgg"><path id="path0" d="M258.194 0.608 C 257.735 0.929,255.057 1.433,251.994 1.774 C 249.027 2.104,245.790 2.636,244.800 2.955 C 242.878 3.575,237.574 5.088,231.957 6.617 C 181.764 20.282,145.668 58.137,133.187 110.200 C 130.515 121.348,130.144 123.567,127.939 141.600 C 127.623 144.191,127.399 161.241,127.238 195.200 L 127.000 245.000 126.053 246.653 C 125.506 247.607,124.407 248.706,123.453 249.253 L 121.800 250.200 75.000 250.400 C 23.283 250.621,26.582 250.442,24.297 253.158 C 22.373 255.445,22.404 254.469,22.411 311.800 C 22.418 372.252,22.237 368.155,25.002 370.330 C 27.138 372.010,27.569 372.026,74.899 372.145 C 124.611 372.269,122.655 372.175,125.040 374.560 C 127.318 376.838,127.195 368.200,127.198 527.038 C 127.199 608.459,127.317 676.994,127.461 679.338 L 127.722 683.600 190.461 683.600 L 253.200 683.600 253.202 531.100 C 253.205 369.198,253.109 376.567,255.245 374.478 C 257.592 372.184,256.261 372.245,305.878 372.140 C 354.807 372.036,353.769 372.081,356.206 369.941 C 358.399 368.015,358.416 367.931,361.406 344.200 C 362.182 338.040,363.085 331.200,363.413 329.000 C 363.742 326.800,364.269 322.750,364.585 320.000 C 365.149 315.094,365.832 309.822,368.601 289.000 C 373.291 253.731,373.288 253.975,369.036 251.538 L 367.400 250.600 313.200 250.400 C 255.436 250.187,257.811 250.275,255.662 248.273 C 253.264 246.040,253.411 248.706,253.282 205.200 C 253.153 161.243,253.298 157.633,255.552 148.742 C 260.366 129.754,270.002 120.856,291.200 115.826 C 299.068 113.959,300.477 113.892,337.000 113.635 C 375.383 113.365,373.464 113.504,375.703 110.842 C 377.617 108.567,377.595 109.169,377.599 59.000 L 377.603 11.400 376.736 8.477 C 375.776 5.238,375.252 4.773,371.400 3.738 C 368.868 3.059,354.237 1.732,345.631 1.402 C 341.136 1.229,338.712 0.968,337.951 0.575 C 336.300 -0.279,259.413 -0.248,258.194 0.608 " stroke="none" fill="#ffffff" fill-rule="evenodd"></path><path id="path1" d="M0.000 341.800 L 0.000 683.600 63.700 683.600 L 127.400 683.600 127.292 531.315 C 127.177 368.327,127.299 376.819,125.045 374.565 C 122.654 372.174,124.625 372.269,74.899 372.145 C 27.569 372.026,27.138 372.010,25.002 370.330 C 22.237 368.155,22.418 372.252,22.411 311.800 C 22.404 254.469,22.373 255.445,24.297 253.158 C 26.582 250.442,23.283 250.621,75.000 250.400 L 121.800 250.200 123.453 249.253 C 124.407 248.706,125.506 247.607,126.053 246.653 L 127.000 245.000 127.238 195.200 C 127.399 161.241,127.623 144.191,127.939 141.600 C 130.144 123.567,130.515 121.348,133.187 110.200 C 145.668 58.137,181.764 20.282,231.957 6.617 C 237.574 5.088,242.878 3.575,244.800 2.955 C 245.790 2.636,249.003 2.107,251.940 1.780 C 256.692 1.251,258.800 0.761,258.800 0.186 C 258.800 0.084,200.570 0.000,129.400 0.000 L 0.000 0.000 0.000 341.800 M338.027 0.591 C 338.722 0.968,341.184 1.231,345.627 1.401 C 354.236 1.732,368.868 3.059,371.400 3.738 C 375.252 4.773,375.776 5.238,376.736 8.477 L 377.603 11.400 377.599 59.000 C 377.595 109.169,377.617 108.567,375.703 110.842 C 373.464 113.504,375.383 113.365,337.000 113.635 C 300.477 113.892,299.068 113.959,291.200 115.826 C 270.002 120.856,260.366 129.754,255.552 148.742 C 253.298 157.633,253.153 161.243,253.282 205.200 C 253.411 248.706,253.264 246.040,255.662 248.273 C 257.811 250.275,255.436 250.187,313.200 250.400 L 367.400 250.600 369.036 251.538 C 373.288 253.975,373.291 253.731,368.601 289.000 C 365.832 309.822,365.149 315.094,364.585 320.000 C 364.269 322.750,363.742 326.800,363.413 329.000 C 363.085 331.200,362.182 338.040,361.406 344.200 C 358.416 367.931,358.399 368.015,356.206 369.941 C 353.769 372.081,354.807 372.036,305.878 372.140 C 256.261 372.245,257.592 372.184,255.245 374.478 C 253.109 376.567,253.205 369.198,253.202 531.100 L 253.200 683.600 326.600 683.600 L 400.000 683.600 400.000 341.800 L 400.000 0.000 368.500 0.016 C 341.308 0.030,337.140 0.108,338.027 0.591 " stroke="none" fill="#000000" fill-rule="evenodd"></path></g></svg>