<svg id="svg" version="1.1" xmlns="http://www.w3.org/2000/svg" xmlns:xlink="http://www.w3.org/1999/xlink" width="400" height="400" viewBox="0, 0, 400,400"><g id="svgg"><path id="path0" d="" stroke="none" fill="#fcfcfc" fill-rule="evenodd"></path><path id="path1" d="M82.970 0.228 C 82.845 0.354,82.139 0.508,81.403 0.571 C 80.666 0.634,79.914 0.815,79.732 0.973 C 79.550 1.131,78.959 1.321,78.419 1.395 C 77.879 1.469,77.332 1.657,77.203 1.813 C 77.073 1.968,76.506 2.157,75.941 2.232 C 75.377 2.307,74.809 2.496,74.679 2.653 C 74.549 2.809,73.981 2.998,73.417 3.073 C 72.852 3.148,72.284 3.338,72.154 3.494 C 72.024 3.651,71.456 3.840,70.892 3.915 C 70.327 3.990,69.759 4.179,69.629 4.336 C 69.499 4.492,68.931 4.682,68.367 4.757 C 67.802 4.832,67.234 5.021,67.104 5.177 C 66.974 5.334,66.401 5.524,65.830 5.600 C 65.131 5.693,64.724 5.865,64.583 6.130 C 64.453 6.372,64.143 6.523,63.774 6.523 C 63.445 6.523,63.058 6.665,62.914 6.839 C 62.770 7.012,62.487 7.154,62.286 7.154 C 62.084 7.154,61.677 7.344,61.382 7.577 C 61.086 7.809,60.407 8.059,59.872 8.132 C 59.236 8.220,58.827 8.401,58.690 8.657 C 58.559 8.901,58.250 9.048,57.864 9.048 C 57.463 9.048,57.169 9.195,57.023 9.469 C 56.876 9.743,56.582 9.890,56.181 9.890 C 55.780 9.890,55.486 10.037,55.339 10.310 C 55.206 10.560,54.899 10.731,54.585 10.731 C 54.265 10.731,53.756 11.022,53.298 11.468 C 52.881 11.873,52.372 12.204,52.167 12.204 C 51.962 12.204,51.513 12.441,51.169 12.730 C 50.826 13.019,50.387 13.256,50.196 13.256 C 50.004 13.256,49.506 13.588,49.089 13.993 C 48.672 14.398,48.152 14.729,47.932 14.729 C 47.713 14.729,47.314 14.966,47.046 15.255 C 46.778 15.544,46.355 15.781,46.105 15.781 C 45.838 15.781,45.168 16.257,44.475 16.938 C 43.828 17.575,43.126 18.096,42.914 18.096 C 42.702 18.096,41.931 18.662,41.201 19.354 C 40.471 20.047,39.715 20.615,39.521 20.617 C 39.327 20.619,38.333 21.425,37.312 22.407 C 36.291 23.390,35.288 24.195,35.085 24.196 C 34.595 24.198,24.198 34.603,24.198 35.090 C 24.198 35.296,23.251 36.436,22.094 37.623 C 20.936 38.810,19.989 39.944,19.989 40.143 C 19.989 40.343,19.563 40.963,19.043 41.523 C 18.522 42.082,18.096 42.710,18.096 42.919 C 18.096 43.128,17.575 43.828,16.938 44.475 C 16.257 45.168,15.781 45.838,15.781 46.105 C 15.781 46.355,15.544 46.778,15.255 47.046 C 14.966 47.314,14.729 47.713,14.729 47.932 C 14.729 48.152,14.398 48.672,13.993 49.089 C 13.588 49.506,13.256 50.004,13.256 50.196 C 13.256 50.387,13.019 50.826,12.730 51.169 C 12.441 51.513,12.204 51.938,12.204 52.113 C 12.204 52.289,12.015 52.673,11.783 52.967 C 11.552 53.262,11.362 53.664,11.362 53.862 C 11.362 54.061,11.031 54.564,10.626 54.981 C 10.181 55.440,9.890 55.948,9.890 56.268 C 9.890 56.569,9.720 56.888,9.498 57.007 C 9.243 57.144,9.061 57.552,8.974 58.189 C 8.901 58.724,8.651 59.403,8.418 59.699 C 8.186 59.994,7.996 60.374,7.996 60.542 C 7.996 60.711,7.806 61.090,7.575 61.384 C 7.344 61.678,7.154 62.084,7.154 62.286 C 7.154 62.487,7.012 62.770,6.839 62.914 C 6.665 63.058,6.523 63.445,6.523 63.774 C 6.523 64.143,6.372 64.453,6.130 64.583 C 5.865 64.724,5.693 65.131,5.600 65.830 C 5.524 66.401,5.334 66.974,5.177 67.104 C 5.021 67.234,4.832 67.802,4.757 68.367 C 4.682 68.931,4.492 69.499,4.336 69.629 C 4.179 69.759,3.990 70.327,3.915 70.892 C 3.840 71.456,3.651 72.024,3.494 72.154 C 3.338 72.284,3.148 72.852,3.073 73.417 C 2.998 73.981,2.809 74.549,2.653 74.679 C 2.496 74.809,2.307 75.377,2.232 75.941 C 2.157 76.506,1.960 77.080,1.795 77.217 C 1.621 77.362,1.435 78.073,1.352 78.919 C 1.273 79.718,1.084 80.475,0.931 80.602 C 0.778 80.729,0.589 81.490,0.510 82.294 C 0.430 83.097,0.283 83.806,0.183 83.868 C -0.058 84.017,-0.058 316.194,0.183 316.343 C 0.283 316.405,0.430 317.113,0.510 317.917 C 0.589 318.720,0.778 319.481,0.931 319.608 C 1.084 319.735,1.273 320.492,1.352 321.292 C 1.435 322.137,1.621 322.849,1.795 322.994 C 1.960 323.131,2.157 323.704,2.232 324.269 C 2.307 324.833,2.496 325.401,2.653 325.531 C 2.809 325.661,2.998 326.229,3.073 326.794 C 3.148 327.358,3.338 327.926,3.494 328.056 C 3.651 328.186,3.840 328.754,3.915 329.319 C 3.990 329.883,4.179 330.451,4.336 330.581 C 4.492 330.711,4.682 331.279,4.757 331.844 C 4.832 332.408,5.023 332.978,5.182 333.110 C 5.341 333.242,5.471 333.515,5.471 333.716 C 5.471 333.918,5.661 334.325,5.893 334.620 C 6.126 334.916,6.376 335.595,6.449 336.130 C 6.536 336.766,6.718 337.175,6.973 337.312 C 7.214 337.441,7.365 337.752,7.365 338.119 C 7.365 338.448,7.507 338.835,7.680 338.979 C 7.854 339.124,7.996 339.406,7.996 339.608 C 7.996 339.810,8.185 340.216,8.417 340.510 C 8.648 340.804,8.837 341.183,8.837 341.351 C 8.837 341.520,9.027 341.899,9.258 342.193 C 9.490 342.487,9.679 342.866,9.679 343.035 C 9.679 343.203,9.868 343.582,10.100 343.876 C 10.331 344.171,10.521 344.549,10.521 344.718 C 10.521 344.887,10.710 345.266,10.942 345.560 C 11.173 345.854,11.362 346.238,11.362 346.414 C 11.362 346.589,11.599 347.014,11.888 347.358 C 12.178 347.702,12.415 348.179,12.415 348.419 C 12.415 348.658,12.604 348.956,12.835 349.079 C 13.084 349.213,13.256 349.520,13.256 349.831 C 13.256 350.160,13.573 350.688,14.098 351.234 C 14.561 351.716,14.940 352.285,14.940 352.499 C 14.940 352.713,15.271 353.229,15.676 353.646 C 16.081 354.063,16.412 354.571,16.412 354.775 C 16.412 354.979,16.839 355.604,17.359 356.163 C 17.880 356.722,18.306 357.346,18.306 357.549 C 18.306 357.753,18.874 358.502,19.569 359.213 C 20.263 359.925,20.831 360.678,20.831 360.887 C 20.831 361.096,22.157 362.620,23.777 364.273 C 25.397 365.927,26.722 367.448,26.723 367.652 C 26.723 368.138,32.916 374.329,33.401 374.329 C 33.606 374.329,34.799 375.324,36.051 376.539 C 37.304 377.754,38.488 378.748,38.683 378.748 C 38.878 378.748,39.771 379.458,40.667 380.326 C 41.564 381.194,42.467 381.904,42.674 381.904 C 42.881 381.904,43.445 382.283,43.926 382.746 C 44.408 383.209,44.976 383.588,45.189 383.588 C 45.401 383.588,45.970 383.966,46.451 384.429 C 46.933 384.892,47.501 385.271,47.714 385.271 C 47.926 385.271,48.495 385.650,48.976 386.113 C 49.522 386.637,50.051 386.954,50.379 386.954 C 50.690 386.954,50.998 387.126,51.131 387.375 C 51.256 387.609,51.572 387.796,51.842 387.796 C 52.110 387.796,52.500 387.985,52.709 388.217 C 52.919 388.448,53.275 388.638,53.500 388.638 C 53.726 388.638,54.192 388.874,54.536 389.164 C 54.880 389.453,55.305 389.690,55.480 389.690 C 55.655 389.690,56.040 389.879,56.334 390.110 C 56.628 390.342,57.007 390.531,57.176 390.531 C 57.344 390.531,57.723 390.721,58.017 390.952 C 58.312 391.184,58.717 391.373,58.919 391.373 C 59.121 391.373,59.404 391.515,59.548 391.689 C 59.692 391.862,60.079 392.004,60.408 392.004 C 60.790 392.004,61.087 392.156,61.231 392.425 C 61.377 392.699,61.672 392.846,62.073 392.846 C 62.459 392.846,62.767 392.992,62.899 393.239 C 63.041 393.503,63.447 393.676,64.147 393.769 C 64.718 393.845,65.290 394.034,65.419 394.190 C 65.549 394.345,66.087 394.532,66.616 394.604 C 67.145 394.677,67.820 394.926,68.115 395.159 C 68.411 395.391,68.817 395.581,69.019 395.581 C 69.221 395.581,69.494 395.711,69.625 395.870 C 69.757 396.029,70.327 396.221,70.892 396.295 C 71.456 396.370,72.024 396.560,72.154 396.716 C 72.284 396.873,72.852 397.062,73.417 397.137 C 73.981 397.212,74.553 397.406,74.688 397.569 C 74.826 397.735,75.550 397.929,76.341 398.010 C 77.115 398.090,77.891 398.274,78.064 398.419 C 78.238 398.563,78.803 398.746,79.321 398.825 C 79.839 398.904,80.407 399.096,80.584 399.253 C 81.225 399.822,85.018 399.844,198.527 399.936 C 317.256 400.032,318.714 400.024,319.627 399.243 C 319.803 399.092,320.371 398.904,320.889 398.825 C 321.407 398.746,321.989 398.544,322.183 398.375 C 322.377 398.207,323.135 398.018,323.867 397.955 C 324.598 397.893,325.346 397.712,325.528 397.554 C 325.710 397.396,326.301 397.206,326.841 397.132 C 327.381 397.058,327.929 396.870,328.058 396.715 C 328.187 396.559,328.760 396.370,329.330 396.294 C 330.030 396.201,330.436 396.028,330.578 395.764 C 330.707 395.522,331.018 395.371,331.386 395.371 C 331.715 395.371,332.101 395.231,332.243 395.060 C 332.385 394.888,332.963 394.687,333.527 394.612 C 334.092 394.537,334.661 394.346,334.793 394.187 C 334.925 394.028,335.198 393.898,335.400 393.898 C 335.601 393.898,336.008 393.708,336.304 393.475 C 336.599 393.243,337.278 392.993,337.813 392.920 C 338.450 392.832,338.858 392.651,338.995 392.395 C 339.126 392.151,339.436 392.004,339.821 392.004 C 340.222 392.004,340.516 391.857,340.663 391.583 C 340.806 391.316,341.103 391.163,341.479 391.163 C 341.804 391.163,342.242 390.973,342.451 390.742 C 342.661 390.510,343.040 390.321,343.293 390.321 C 343.546 390.321,343.925 390.132,344.135 389.900 C 344.344 389.669,344.734 389.479,345.002 389.479 C 345.272 389.479,345.587 389.293,345.713 389.058 C 345.859 388.785,346.153 388.638,346.554 388.638 C 346.956 388.638,347.250 388.491,347.396 388.217 C 347.530 387.967,347.837 387.796,348.150 387.796 C 348.470 387.796,348.979 387.505,349.438 387.059 C 349.855 386.654,350.375 386.323,350.595 386.323 C 350.814 386.323,351.213 386.086,351.481 385.797 C 351.749 385.508,352.194 385.270,352.470 385.269 C 352.790 385.268,353.239 384.963,353.709 384.429 C 354.156 383.921,354.632 383.591,354.920 383.590 C 355.214 383.588,355.886 383.108,356.688 382.325 C 357.400 381.631,358.158 381.063,358.372 381.063 C 358.586 381.063,359.343 380.494,360.055 379.800 C 360.767 379.106,361.538 378.538,361.768 378.538 C 362.343 378.538,378.538 362.343,378.538 361.768 C 378.538 361.538,379.106 360.767,379.800 360.055 C 380.494 359.343,381.063 358.594,381.063 358.391 C 381.063 358.188,381.489 357.564,382.009 357.004 C 382.530 356.445,382.956 355.817,382.956 355.608 C 382.956 355.399,383.477 354.699,384.114 354.052 C 384.891 353.262,385.271 352.704,385.271 352.353 C 385.271 352.045,385.444 351.737,385.692 351.604 C 385.923 351.481,386.113 351.165,386.113 350.903 C 386.113 350.634,386.478 350.046,386.954 349.551 C 387.479 349.005,387.796 348.476,387.796 348.148 C 387.796 347.837,387.968 347.529,388.217 347.396 C 388.451 347.271,388.638 346.956,388.638 346.685 C 388.638 346.418,388.827 346.027,389.058 345.818 C 389.290 345.609,389.479 345.230,389.479 344.976 C 389.479 344.723,389.669 344.344,389.900 344.135 C 390.132 343.925,390.321 343.488,390.321 343.163 C 390.321 342.787,390.474 342.489,390.742 342.346 C 391.016 342.200,391.163 341.906,391.163 341.504 C 391.163 341.103,391.310 340.809,391.583 340.663 C 391.857 340.516,392.004 340.222,392.004 339.821 C 392.004 339.435,392.151 339.126,392.397 338.995 C 392.662 338.853,392.834 338.447,392.927 337.747 C 393.003 337.176,393.205 336.593,393.376 336.451 C 393.547 336.309,393.688 335.982,393.688 335.725 C 393.688 335.468,393.865 335.096,394.082 334.900 C 394.311 334.693,394.534 334.112,394.613 333.522 C 394.687 332.960,394.876 332.395,395.031 332.266 C 395.187 332.137,395.374 331.598,395.446 331.069 C 395.519 330.540,395.768 329.866,396.000 329.570 C 396.233 329.275,396.423 328.868,396.423 328.667 C 396.423 328.465,396.553 328.192,396.712 328.060 C 396.871 327.928,397.062 327.358,397.137 326.794 C 397.212 326.229,397.408 325.656,397.573 325.519 C 397.748 325.374,397.933 324.662,398.017 323.817 C 398.096 323.017,398.283 322.262,398.433 322.137 C 398.584 322.012,398.772 321.277,398.852 320.502 C 398.932 319.728,399.120 318.953,399.269 318.780 C 400.015 317.912,400.022 316.670,399.931 198.843 C 399.844 85.027,399.822 81.225,399.253 80.584 C 399.096 80.407,398.904 79.839,398.825 79.321 C 398.746 78.803,398.563 78.238,398.419 78.064 C 398.274 77.891,398.090 77.115,398.010 76.341 C 397.929 75.550,397.735 74.826,397.569 74.688 C 397.406 74.553,397.212 73.981,397.137 73.417 C 397.062 72.852,396.873 72.284,396.716 72.154 C 396.560 72.024,396.370 71.456,396.295 70.892 C 396.221 70.327,396.029 69.757,395.870 69.625 C 395.711 69.494,395.581 69.221,395.581 69.019 C 395.581 68.817,395.391 68.411,395.159 68.115 C 394.926 67.820,394.677 67.145,394.604 66.616 C 394.532 66.087,394.345 65.549,394.190 65.419 C 394.034 65.290,393.845 64.718,393.769 64.147 C 393.676 63.447,393.503 63.041,393.239 62.899 C 392.992 62.767,392.846 62.459,392.846 62.073 C 392.846 61.672,392.699 61.377,392.425 61.231 C 392.156 61.087,392.004 60.790,392.004 60.408 C 392.004 60.079,391.862 59.692,391.689 59.548 C 391.515 59.404,391.373 59.121,391.373 58.919 C 391.373 58.717,391.184 58.312,390.952 58.017 C 390.721 57.723,390.531 57.344,390.531 57.176 C 390.531 57.007,390.342 56.628,390.110 56.334 C 389.879 56.040,389.690 55.655,389.690 55.480 C 389.690 55.305,389.453 54.880,389.164 54.536 C 388.874 54.192,388.638 53.726,388.638 53.500 C 388.638 53.275,388.448 52.919,388.217 52.709 C 387.985 52.500,387.796 52.149,387.796 51.930 C 387.796 51.710,387.464 51.190,387.059 50.773 C 386.654 50.356,386.323 49.847,386.323 49.642 C 386.323 49.437,386.086 48.988,385.797 48.644 C 385.508 48.301,385.271 47.864,385.271 47.673 C 385.271 47.483,384.892 46.933,384.429 46.451 C 383.966 45.970,383.588 45.401,383.588 45.189 C 383.588 44.976,383.209 44.408,382.746 43.926 C 382.283 43.445,381.904 42.880,381.904 42.671 C 381.904 42.462,381.336 41.709,380.642 40.997 C 379.947 40.285,379.379 39.532,379.379 39.323 C 379.379 39.115,378.054 37.591,376.434 35.937 C 374.814 34.283,373.488 32.763,373.488 32.558 C 373.488 32.074,367.296 25.882,366.810 25.880 C 366.606 25.879,365.276 24.742,363.856 23.355 C 362.435 21.967,361.101 20.831,360.890 20.831 C 360.680 20.831,359.925 20.263,359.213 19.569 C 358.502 18.874,357.753 18.306,357.549 18.306 C 357.346 18.306,356.722 17.880,356.163 17.359 C 355.604 16.839,354.979 16.412,354.775 16.412 C 354.571 16.412,354.063 16.081,353.646 15.676 C 353.229 15.271,352.713 14.940,352.499 14.940 C 352.285 14.940,351.716 14.561,351.234 14.098 C 350.688 13.573,350.160 13.256,349.831 13.256 C 349.520 13.256,349.213 13.084,349.079 12.835 C 348.956 12.604,348.658 12.415,348.419 12.415 C 348.179 12.415,347.702 12.178,347.358 11.888 C 347.014 11.599,346.589 11.362,346.414 11.362 C 346.238 11.362,345.854 11.173,345.560 10.942 C 345.266 10.710,344.887 10.521,344.718 10.521 C 344.549 10.521,344.171 10.331,343.876 10.100 C 343.582 9.868,343.203 9.679,343.035 9.679 C 342.866 9.679,342.487 9.490,342.193 9.258 C 341.899 9.027,341.520 8.837,341.351 8.837 C 341.183 8.837,340.804 8.648,340.510 8.417 C 340.216 8.185,339.810 7.996,339.608 7.996 C 339.406 7.996,339.124 7.854,338.979 7.680 C 338.835 7.507,338.448 7.365,338.119 7.365 C 337.752 7.365,337.441 7.214,337.312 6.973 C 337.175 6.718,336.766 6.536,336.130 6.449 C 335.595 6.376,334.916 6.126,334.620 5.893 C 334.325 5.661,333.918 5.471,333.716 5.471 C 333.515 5.471,333.242 5.341,333.110 5.182 C 332.978 5.023,332.408 4.832,331.844 4.757 C 331.279 4.682,330.711 4.492,330.581 4.336 C 330.451 4.179,329.883 3.990,329.319 3.915 C 328.754 3.840,328.186 3.651,328.056 3.494 C 327.926 3.338,327.358 3.148,326.794 3.073 C 326.229 2.998,325.661 2.809,325.531 2.653 C 325.401 2.496,324.833 2.307,324.269 2.232 C 323.704 2.157,323.131 1.960,322.994 1.795 C 322.849 1.621,322.137 1.435,321.292 1.352 C 320.492 1.273,319.735 1.084,319.608 0.931 C 319.481 0.778,318.720 0.589,317.917 0.510 C 317.113 0.430,316.405 0.283,316.343 0.183 C 316.168 -0.100,83.253 -0.054,82.970 0.228 M273.255 42.319 C 273.591 42.613,274.649 42.680,280.902 42.805 C 286.420 42.915,288.234 43.015,288.477 43.225 C 288.689 43.409,289.814 43.550,291.843 43.646 C 293.870 43.742,294.997 43.882,295.209 44.066 C 295.402 44.232,296.401 44.396,297.726 44.479 C 299.107 44.565,300.044 44.722,300.251 44.903 C 300.438 45.068,301.361 45.254,302.409 45.338 C 303.521 45.428,304.331 45.596,304.474 45.768 C 304.602 45.923,305.341 46.116,306.115 46.196 C 306.889 46.276,307.664 46.460,307.838 46.606 C 308.012 46.752,308.596 46.935,309.136 47.012 C 309.676 47.090,310.222 47.279,310.349 47.432 C 310.477 47.586,311.043 47.772,311.607 47.847 C 312.171 47.922,312.739 48.111,312.869 48.268 C 312.999 48.425,313.568 48.614,314.132 48.689 C 314.696 48.764,315.274 48.965,315.417 49.136 C 315.559 49.308,315.944 49.448,316.273 49.448 C 316.641 49.448,316.952 49.598,317.080 49.839 C 317.217 50.095,317.626 50.276,318.262 50.363 C 318.797 50.436,319.477 50.687,319.772 50.919 C 320.068 51.151,320.447 51.341,320.616 51.341 C 320.785 51.341,321.163 51.531,321.458 51.762 C 321.752 51.994,322.155 52.183,322.353 52.183 C 322.551 52.183,323.054 52.514,323.471 52.920 C 323.930 53.365,324.439 53.656,324.759 53.656 C 325.072 53.656,325.379 53.827,325.513 54.077 C 325.637 54.308,325.952 54.498,326.214 54.498 C 326.484 54.498,327.071 54.863,327.567 55.339 C 328.048 55.802,328.624 56.181,328.845 56.181 C 329.066 56.181,330.017 56.938,330.958 57.864 C 331.899 58.790,332.833 59.548,333.034 59.548 C 333.513 59.548,340.663 66.692,340.663 67.171 C 340.663 67.374,341.373 68.273,342.241 69.170 C 343.109 70.066,343.819 70.959,343.819 71.153 C 343.819 71.347,344.198 71.912,344.661 72.409 C 345.124 72.905,345.502 73.486,345.502 73.699 C 345.502 73.912,345.739 74.306,346.028 74.574 C 346.318 74.842,346.554 75.268,346.554 75.521 C 346.554 75.774,346.884 76.321,347.287 76.736 C 347.846 77.311,348.053 77.735,348.157 78.521 C 348.249 79.215,348.422 79.621,348.687 79.763 C 348.933 79.894,349.079 80.203,349.079 80.589 C 349.079 80.990,349.226 81.284,349.500 81.431 C 349.770 81.575,349.921 81.871,349.921 82.254 C 349.921 82.583,350.063 82.970,350.237 83.114 C 350.410 83.258,350.552 83.541,350.552 83.743 C 350.552 83.944,350.739 84.346,350.966 84.636 C 351.194 84.925,351.443 85.577,351.520 86.084 C 351.597 86.592,351.785 87.151,351.938 87.328 C 352.091 87.505,352.280 88.073,352.359 88.590 C 352.438 89.108,352.640 89.691,352.808 89.885 C 352.977 90.078,353.166 90.836,353.228 91.568 C 353.291 92.300,353.480 93.057,353.649 93.251 C 353.818 93.445,354.007 94.203,354.070 94.934 C 354.133 95.666,354.302 96.407,354.448 96.581 C 354.593 96.754,354.777 97.530,354.856 98.304 C 354.936 99.078,355.128 99.815,355.281 99.943 C 355.471 100.100,355.609 101.038,355.710 102.849 C 355.805 104.533,355.961 105.640,356.132 105.839 C 356.316 106.052,356.452 107.282,356.553 109.627 C 356.655 111.988,356.790 113.199,356.977 113.414 C 357.187 113.656,357.286 115.725,357.399 122.251 C 357.529 129.685,357.591 130.823,357.890 131.164 C 358.418 131.765,358.418 268.445,357.890 269.047 C 357.591 269.387,357.529 270.526,357.399 277.959 C 357.286 284.486,357.187 286.555,356.977 286.796 C 356.790 287.011,356.655 288.222,356.553 290.584 C 356.454 292.891,356.314 294.162,356.136 294.371 C 355.980 294.555,355.811 295.605,355.732 296.884 C 355.646 298.257,355.488 299.204,355.309 299.409 C 355.148 299.593,354.957 300.523,354.874 301.526 C 354.792 302.509,354.604 303.456,354.455 303.630 C 354.306 303.803,354.133 304.544,354.070 305.276 C 354.006 306.020,353.816 306.762,353.638 306.959 C 353.463 307.153,353.253 307.927,353.172 308.680 C 353.091 309.432,352.907 310.189,352.763 310.363 C 352.619 310.537,352.439 311.094,352.362 311.601 C 352.285 312.109,352.035 312.761,351.808 313.050 C 351.580 313.339,351.394 313.741,351.394 313.943 C 351.394 314.144,351.264 314.417,351.105 314.549 C 350.946 314.681,350.755 315.251,350.680 315.815 C 350.605 316.380,350.404 316.958,350.232 317.100 C 350.061 317.242,349.921 317.569,349.921 317.826 C 349.921 318.083,349.732 318.465,349.500 318.674 C 349.269 318.884,349.079 319.321,349.079 319.646 C 349.079 320.022,348.926 320.320,348.659 320.463 C 348.385 320.609,348.238 320.903,348.238 321.305 C 348.238 321.706,348.091 322.000,347.817 322.146 C 347.543 322.293,347.396 322.587,347.396 322.988 C 347.396 323.389,347.249 323.683,346.975 323.830 C 346.744 323.953,346.554 324.269,346.554 324.531 C 346.554 324.800,346.189 325.388,345.713 325.883 C 345.250 326.365,344.871 326.933,344.871 327.146 C 344.871 327.358,344.492 327.926,344.029 328.408 C 343.567 328.890,343.188 329.467,343.188 329.691 C 343.188 329.924,342.290 331.006,341.084 332.226 C 339.926 333.396,338.979 334.517,338.979 334.716 C 338.979 335.195,335.202 338.979,334.724 338.979 C 334.520 338.979,333.396 339.926,332.226 341.084 C 331.006 342.290,329.924 343.188,329.691 343.188 C 329.467 343.188,328.890 343.567,328.408 344.029 C 327.926 344.492,327.358 344.871,327.146 344.871 C 326.933 344.871,326.365 345.250,325.883 345.713 C 325.388 346.189,324.800 346.554,324.531 346.554 C 324.269 346.554,323.953 346.744,323.830 346.975 C 323.683 347.249,323.389 347.396,322.988 347.396 C 322.587 347.396,322.293 347.543,322.146 347.817 C 322.000 348.091,321.706 348.238,321.305 348.238 C 320.903 348.238,320.609 348.385,320.463 348.659 C 320.320 348.926,320.022 349.079,319.646 349.079 C 319.321 349.079,318.884 349.269,318.674 349.500 C 318.465 349.732,318.083 349.921,317.826 349.921 C 317.569 349.921,317.242 350.061,317.100 350.232 C 316.958 350.404,316.380 350.605,315.815 350.680 C 315.251 350.755,314.681 350.946,314.549 351.105 C 314.417 351.264,314.144 351.394,313.943 351.394 C 313.741 351.394,313.335 351.583,313.041 351.815 C 312.740 352.051,312.187 352.236,311.778 352.236 C 311.378 352.236,310.825 352.411,310.549 352.626 C 310.251 352.858,309.493 353.078,308.680 353.168 C 307.927 353.251,307.153 353.463,306.959 353.638 C 306.762 353.816,306.020 354.006,305.276 354.070 C 304.544 354.133,303.803 354.306,303.630 354.455 C 303.456 354.604,302.509 354.792,301.526 354.874 C 300.542 354.956,299.595 355.142,299.421 355.287 C 299.243 355.437,298.148 355.616,296.896 355.701 C 295.543 355.792,294.565 355.959,294.371 356.132 C 294.146 356.333,292.942 356.455,290.163 356.560 C 287.442 356.663,286.175 356.790,285.954 356.982 C 285.711 357.193,283.735 357.292,277.537 357.404 C 270.503 357.530,269.386 357.595,269.047 357.891 C 268.446 358.417,131.765 358.417,131.164 357.891 C 130.825 357.595,129.707 357.530,122.673 357.404 C 116.476 357.292,114.499 357.193,114.257 356.982 C 114.035 356.790,112.768 356.663,110.047 356.560 C 107.350 356.458,106.058 356.330,105.839 356.141 C 105.651 355.979,104.634 355.813,103.327 355.732 C 101.954 355.646,101.007 355.488,100.802 355.309 C 100.618 355.148,99.687 354.957,98.685 354.874 C 97.701 354.792,96.754 354.604,96.581 354.455 C 96.407 354.306,95.666 354.133,94.934 354.070 C 94.190 354.006,93.448 353.816,93.251 353.638 C 93.057 353.463,92.283 353.253,91.531 353.172 C 90.779 353.091,90.021 352.906,89.847 352.761 C 89.674 352.616,89.090 352.434,88.550 352.356 C 88.009 352.279,87.453 352.078,87.314 351.910 C 87.175 351.742,86.791 351.604,86.462 351.604 C 86.094 351.604,85.784 351.454,85.654 351.212 C 85.512 350.947,85.106 350.774,84.406 350.681 C 83.836 350.606,83.253 350.404,83.111 350.232 C 82.968 350.061,82.583 349.921,82.254 349.921 C 81.871 349.921,81.575 349.770,81.431 349.500 C 81.284 349.226,80.990 349.079,80.589 349.079 C 80.188 349.079,79.894 348.932,79.748 348.659 C 79.601 348.385,79.307 348.238,78.906 348.238 C 78.505 348.238,78.211 348.091,78.064 347.817 C 77.918 347.543,77.624 347.396,77.223 347.396 C 76.821 347.396,76.527 347.249,76.381 346.975 C 76.244 346.720,75.940 346.554,75.609 346.554 C 75.295 346.554,74.853 346.330,74.574 346.028 C 74.306 345.739,73.912 345.502,73.699 345.502 C 73.486 345.502,72.905 345.124,72.409 344.661 C 71.912 344.198,71.344 343.819,71.147 343.819 C 70.949 343.819,69.865 342.920,68.739 341.820 C 67.612 340.721,66.529 339.821,66.330 339.821 C 65.854 339.821,59.548 333.515,59.548 333.039 C 59.548 332.835,58.790 331.899,57.864 330.958 C 56.936 330.015,56.181 329.066,56.181 328.843 C 56.181 328.620,55.850 328.097,55.445 327.680 C 55.039 327.262,54.708 326.754,54.708 326.550 C 54.708 326.346,54.329 325.773,53.866 325.277 C 53.403 324.780,53.025 324.217,53.025 324.025 C 53.025 323.833,52.835 323.435,52.604 323.141 C 52.372 322.847,52.183 322.468,52.183 322.299 C 52.183 322.131,51.994 321.752,51.762 321.458 C 51.531 321.163,51.341 320.785,51.341 320.616 C 51.341 320.447,51.151 320.068,50.919 319.772 C 50.687 319.477,50.436 318.797,50.363 318.262 C 50.276 317.626,50.095 317.217,49.839 317.080 C 49.598 316.952,49.448 316.641,49.448 316.273 C 49.448 315.944,49.308 315.559,49.136 315.417 C 48.965 315.274,48.764 314.696,48.689 314.132 C 48.614 313.568,48.425 312.999,48.268 312.869 C 48.111 312.739,47.922 312.171,47.847 311.607 C 47.772 311.043,47.586 310.477,47.432 310.349 C 47.279 310.222,47.090 309.676,47.012 309.136 C 46.935 308.596,46.752 308.012,46.606 307.838 C 46.460 307.664,46.276 306.889,46.196 306.115 C 46.116 305.341,45.923 304.602,45.768 304.474 C 45.596 304.331,45.428 303.521,45.338 302.409 C 45.254 301.361,45.068 300.438,44.903 300.251 C 44.722 300.044,44.565 299.107,44.479 297.726 C 44.396 296.401,44.232 295.402,44.066 295.209 C 43.882 294.997,43.742 293.870,43.646 291.843 C 43.550 289.814,43.409 288.689,43.225 288.477 C 43.015 288.234,42.915 286.420,42.805 280.902 C 42.680 274.649,42.613 273.591,42.319 273.255 C 41.794 272.654,41.794 127.556,42.319 126.955 C 42.613 126.619,42.680 125.562,42.805 119.309 C 42.915 113.746,43.014 111.978,43.228 111.734 C 43.421 111.513,43.554 110.343,43.657 107.943 C 43.757 105.617,43.896 104.367,44.076 104.156 C 44.225 103.982,44.413 103.035,44.495 102.052 C 44.576 101.068,44.766 100.121,44.916 99.947 C 45.065 99.774,45.255 98.827,45.336 97.843 C 45.418 96.860,45.607 95.913,45.756 95.739 C 45.905 95.565,46.078 94.825,46.140 94.093 C 46.203 93.361,46.393 92.603,46.563 92.409 C 46.732 92.216,46.935 91.615,47.012 91.075 C 47.090 90.534,47.279 89.988,47.432 89.861 C 47.586 89.734,47.772 89.168,47.847 88.603 C 47.922 88.039,48.111 87.471,48.268 87.341 C 48.425 87.211,48.614 86.643,48.689 86.078 C 48.764 85.514,48.952 84.947,49.108 84.817 C 49.264 84.688,49.450 84.150,49.523 83.621 C 49.595 83.092,49.845 82.417,50.077 82.122 C 50.310 81.826,50.500 81.446,50.500 81.278 C 50.500 81.109,50.689 80.730,50.921 80.436 C 51.152 80.142,51.341 79.763,51.341 79.595 C 51.341 79.426,51.531 79.047,51.762 78.753 C 51.994 78.459,52.183 78.080,52.183 77.911 C 52.183 77.743,52.372 77.364,52.604 77.070 C 52.835 76.775,53.025 76.372,53.025 76.174 C 53.025 75.976,53.356 75.473,53.761 75.056 C 54.166 74.639,54.498 74.123,54.498 73.909 C 54.498 73.695,54.876 73.126,55.339 72.644 C 55.802 72.162,56.181 71.590,56.181 71.372 C 56.181 71.154,56.749 70.393,57.443 69.682 C 58.138 68.970,58.706 68.211,58.706 67.996 C 58.706 67.460,67.444 58.706,67.979 58.706 C 68.204 58.706,68.970 58.138,69.682 57.443 C 70.393 56.749,71.154 56.181,71.372 56.181 C 71.590 56.181,72.162 55.802,72.644 55.339 C 73.126 54.876,73.695 54.498,73.909 54.498 C 74.123 54.498,74.639 54.166,75.056 53.761 C 75.473 53.356,75.976 53.025,76.174 53.025 C 76.372 53.025,76.775 52.835,77.070 52.604 C 77.364 52.372,77.743 52.183,77.911 52.183 C 78.080 52.183,78.459 51.994,78.753 51.762 C 79.047 51.531,79.426 51.341,79.595 51.341 C 79.763 51.341,80.143 51.151,80.438 50.919 C 80.734 50.687,81.413 50.436,81.948 50.363 C 82.584 50.276,82.993 50.095,83.130 49.839 C 83.259 49.598,83.570 49.448,83.937 49.448 C 84.266 49.448,84.652 49.308,84.794 49.136 C 84.936 48.965,85.514 48.764,86.078 48.689 C 86.643 48.614,87.211 48.425,87.341 48.268 C 87.471 48.111,88.039 47.922,88.603 47.847 C 89.168 47.772,89.734 47.586,89.861 47.432 C 89.988 47.279,90.534 47.090,91.075 47.012 C 91.615 46.935,92.216 46.732,92.409 46.563 C 92.603 46.393,93.361 46.203,94.093 46.140 C 94.825 46.078,95.565 45.905,95.739 45.756 C 95.913 45.607,96.860 45.418,97.843 45.336 C 98.827 45.255,99.774 45.065,99.947 44.916 C 100.121 44.766,101.068 44.576,102.052 44.495 C 103.035 44.413,103.982 44.225,104.156 44.076 C 104.367 43.896,105.617 43.757,107.943 43.657 C 110.343 43.554,111.513 43.421,111.734 43.228 C 111.978 43.014,113.746 42.915,119.309 42.805 C 124.948 42.692,126.638 42.597,126.893 42.375 C 127.577 41.782,272.577 41.726,273.255 42.319 M302.814 64.040 C 302.667 64.217,301.892 64.373,300.762 64.453 C 299.578 64.536,298.823 64.693,298.590 64.904 C 298.394 65.081,297.792 65.287,297.252 65.361 C 296.712 65.435,296.164 65.623,296.035 65.779 C 295.906 65.935,295.333 66.124,294.762 66.200 C 294.063 66.292,293.656 66.465,293.515 66.730 C 293.383 66.976,293.074 67.123,292.688 67.123 C 292.287 67.123,291.993 67.270,291.846 67.543 C 291.714 67.790,291.406 67.964,291.101 67.964 C 290.750 67.964,290.162 68.374,289.287 69.227 C 288.575 69.921,287.815 70.489,287.598 70.489 C 287.084 70.489,284.271 73.301,284.271 73.816 C 284.271 74.033,283.703 74.793,283.009 75.505 C 282.156 76.380,281.746 76.968,281.746 77.319 C 281.746 77.624,281.572 77.932,281.326 78.064 C 281.091 78.190,280.905 78.505,280.905 78.775 C 280.905 79.043,280.715 79.433,280.484 79.642 C 280.252 79.852,280.063 80.289,280.063 80.614 C 280.063 80.976,279.911 81.287,279.670 81.416 C 279.406 81.558,279.233 81.964,279.140 82.663 C 279.064 83.234,278.869 83.812,278.706 83.947 C 278.540 84.085,278.347 84.809,278.265 85.600 C 278.181 86.416,277.976 87.170,277.777 87.396 C 277.480 87.734,277.435 88.499,277.435 93.214 C 277.435 97.930,277.480 98.694,277.777 99.032 C 277.976 99.258,278.181 100.012,278.265 100.829 C 278.347 101.619,278.540 102.344,278.706 102.482 C 278.869 102.617,279.064 103.189,279.139 103.753 C 279.213 104.318,279.405 104.888,279.564 105.019 C 279.723 105.151,279.853 105.430,279.853 105.638 C 279.853 105.847,280.089 106.298,280.379 106.642 C 280.668 106.986,280.905 107.452,280.905 107.678 C 280.905 107.904,281.094 108.260,281.326 108.469 C 281.557 108.679,281.746 109.028,281.746 109.246 C 281.746 109.464,282.125 110.037,282.588 110.519 C 283.051 111.000,283.430 111.567,283.430 111.779 C 283.430 112.285,287.092 115.939,287.599 115.939 C 287.816 115.939,288.575 116.507,289.287 117.201 C 290.162 118.055,290.750 118.464,291.101 118.464 C 291.406 118.464,291.714 118.638,291.846 118.885 C 291.972 119.119,292.287 119.306,292.558 119.306 C 292.825 119.306,293.215 119.495,293.425 119.726 C 293.634 119.958,294.071 120.147,294.397 120.147 C 294.758 120.147,295.069 120.300,295.198 120.540 C 295.340 120.805,295.746 120.978,296.446 121.070 C 297.016 121.146,297.589 121.336,297.719 121.492 C 297.865 121.668,298.672 121.833,299.832 121.924 C 301.051 122.019,301.796 122.176,301.959 122.371 C 302.315 122.801,310.823 122.816,311.179 122.388 C 311.326 122.211,312.101 122.055,313.230 121.975 C 314.389 121.894,315.171 121.734,315.393 121.533 C 315.583 121.361,316.163 121.155,316.681 121.076 C 317.199 120.997,317.767 120.808,317.943 120.655 C 318.120 120.503,318.685 120.311,319.199 120.228 C 319.845 120.125,320.357 119.862,320.856 119.377 C 321.254 118.990,321.747 118.674,321.952 118.674 C 322.157 118.674,322.606 118.438,322.950 118.148 C 323.293 117.859,323.733 117.622,323.927 117.622 C 324.412 117.622,330.773 111.204,330.773 110.714 C 330.773 110.498,331.105 109.981,331.510 109.564 C 331.915 109.147,332.246 108.649,332.246 108.457 C 332.246 108.266,332.483 107.828,332.772 107.484 C 333.062 107.140,333.298 106.688,333.298 106.480 C 333.298 106.271,333.440 105.983,333.614 105.839 C 333.787 105.695,333.930 105.308,333.930 104.979 C 333.930 104.605,334.081 104.300,334.333 104.165 C 334.643 103.999,334.771 103.618,334.884 102.527 C 334.965 101.745,335.172 100.944,335.344 100.748 C 335.560 100.502,335.692 99.702,335.770 98.171 C 335.847 96.676,335.977 95.874,336.169 95.714 C 336.575 95.378,336.575 91.051,336.169 90.714 C 335.977 90.555,335.847 89.752,335.770 88.257 C 335.692 86.726,335.560 85.926,335.344 85.680 C 335.172 85.484,334.965 84.684,334.884 83.902 C 334.771 82.810,334.643 82.429,334.333 82.263 C 334.082 82.129,333.930 81.824,333.930 81.456 C 333.930 81.131,333.740 80.693,333.509 80.484 C 333.277 80.274,333.088 79.896,333.088 79.642 C 333.088 79.389,332.898 79.010,332.667 78.801 C 332.436 78.591,332.246 78.241,332.246 78.023 C 332.246 77.805,331.867 77.233,331.405 76.751 C 330.942 76.269,330.563 75.702,330.563 75.489 C 330.563 74.993,324.998 69.437,324.500 69.437 C 324.295 69.437,323.720 69.058,323.224 68.595 C 322.728 68.133,322.179 67.754,322.004 67.754 C 321.829 67.754,321.446 67.564,321.152 67.333 C 320.857 67.102,320.479 66.912,320.310 66.912 C 320.141 66.912,319.763 66.723,319.468 66.491 C 319.174 66.260,318.768 66.070,318.567 66.070 C 318.365 66.070,318.092 65.940,317.960 65.781 C 317.828 65.623,317.258 65.431,316.694 65.356 C 316.130 65.281,315.562 65.092,315.432 64.936 C 315.286 64.760,314.479 64.595,313.319 64.505 C 312.100 64.409,311.355 64.252,311.192 64.057 C 310.837 63.629,303.168 63.614,302.814 64.040 M196.766 91.813 C 196.589 92.027,195.285 92.129,191.336 92.236 C 187.406 92.344,186.059 92.448,185.810 92.666 C 185.606 92.844,184.645 93.010,183.272 93.102 C 181.993 93.189,180.930 93.365,180.747 93.520 C 180.573 93.668,179.636 93.847,178.664 93.918 C 177.579 93.998,176.767 94.165,176.560 94.352 C 176.354 94.538,175.506 94.715,174.384 94.806 C 173.288 94.895,172.452 95.067,172.315 95.232 C 172.189 95.384,171.644 95.572,171.103 95.649 C 170.563 95.727,169.979 95.910,169.805 96.056 C 169.632 96.202,168.856 96.386,168.082 96.466 C 167.292 96.548,166.568 96.741,166.430 96.907 C 166.294 97.070,165.722 97.265,165.158 97.340 C 164.593 97.414,164.025 97.604,163.895 97.760 C 163.765 97.917,163.192 98.107,162.621 98.183 C 161.922 98.276,161.515 98.448,161.374 98.713 C 161.244 98.955,160.934 99.106,160.565 99.106 C 160.236 99.106,159.851 99.246,159.709 99.417 C 159.567 99.588,158.984 99.790,158.413 99.866 C 157.713 99.959,157.307 100.132,157.165 100.396 C 157.037 100.637,156.726 100.789,156.364 100.789 C 156.039 100.789,155.601 100.978,155.392 101.210 C 155.182 101.441,154.801 101.631,154.543 101.631 C 154.286 101.631,153.958 101.773,153.814 101.946 C 153.670 102.120,153.387 102.262,153.185 102.262 C 152.983 102.262,152.578 102.451,152.283 102.683 C 151.989 102.914,151.610 103.104,151.442 103.104 C 151.273 103.104,150.894 103.293,150.600 103.524 C 150.306 103.756,149.922 103.945,149.746 103.945 C 149.571 103.945,149.146 104.182,148.802 104.471 C 148.458 104.761,147.981 104.997,147.741 104.997 C 147.502 104.997,147.204 105.187,147.080 105.418 C 146.947 105.668,146.640 105.839,146.326 105.839 C 146.006 105.839,145.497 106.130,145.039 106.575 C 144.622 106.981,144.113 107.312,143.908 107.312 C 143.703 107.312,143.254 107.549,142.911 107.838 C 142.567 108.127,142.130 108.364,141.939 108.364 C 141.749 108.364,141.199 108.743,140.717 109.206 C 140.236 109.669,139.668 110.047,139.455 110.047 C 139.242 110.047,138.674 110.426,138.193 110.889 C 137.711 111.352,137.146 111.731,136.937 111.731 C 136.728 111.731,135.975 112.299,135.263 112.993 C 134.551 113.688,133.797 114.256,133.587 114.256 C 133.377 114.256,132.234 115.203,131.047 116.360 C 129.861 117.517,128.721 118.464,128.514 118.464 C 128.003 118.464,117.622 128.865,117.622 129.377 C 117.622 129.595,116.865 130.543,115.939 131.484 C 115.013 132.425,114.256 133.369,114.256 133.582 C 114.256 133.795,113.688 134.551,112.993 135.263 C 112.299 135.975,111.731 136.728,111.731 136.937 C 111.731 137.146,111.352 137.711,110.889 138.193 C 110.426 138.674,110.047 139.242,110.047 139.455 C 110.047 139.668,109.669 140.236,109.206 140.717 C 108.743 141.199,108.364 141.749,108.364 141.939 C 108.364 142.130,108.127 142.567,107.838 142.911 C 107.549 143.254,107.312 143.703,107.312 143.908 C 107.312 144.113,106.981 144.622,106.575 145.039 C 106.170 145.456,105.839 145.977,105.839 146.196 C 105.839 146.415,105.650 146.766,105.418 146.975 C 105.187 147.185,104.997 147.541,104.997 147.767 C 104.997 147.992,104.761 148.458,104.471 148.802 C 104.182 149.146,103.945 149.571,103.945 149.746 C 103.945 149.922,103.756 150.306,103.524 150.600 C 103.293 150.894,103.104 151.273,103.104 151.442 C 103.104 151.610,102.914 151.989,102.683 152.283 C 102.451 152.578,102.262 152.983,102.262 153.185 C 102.262 153.387,102.120 153.670,101.946 153.814 C 101.773 153.958,101.631 154.286,101.631 154.543 C 101.631 154.801,101.441 155.182,101.210 155.392 C 100.978 155.601,100.789 156.039,100.789 156.364 C 100.789 156.726,100.637 157.037,100.396 157.165 C 100.132 157.307,99.959 157.713,99.866 158.413 C 99.790 158.984,99.601 159.556,99.445 159.686 C 99.290 159.815,99.103 160.353,99.030 160.882 C 98.958 161.411,98.709 162.086,98.476 162.381 C 98.244 162.677,98.054 163.083,98.054 163.285 C 98.054 163.487,97.924 163.760,97.765 163.892 C 97.606 164.024,97.414 164.593,97.340 165.158 C 97.265 165.722,97.068 166.296,96.903 166.433 C 96.728 166.578,96.543 167.290,96.460 168.135 C 96.381 168.934,96.192 169.692,96.039 169.818 C 95.886 169.945,95.697 170.703,95.618 171.502 C 95.539 172.301,95.352 173.057,95.202 173.182 C 95.051 173.306,94.863 174.042,94.783 174.816 C 94.703 175.590,94.505 176.375,94.342 176.560 C 94.168 176.759,93.995 177.619,93.918 178.664 C 93.847 179.636,93.668 180.573,93.520 180.747 C 93.365 180.930,93.189 181.993,93.102 183.272 C 93.010 184.645,92.844 185.606,92.666 185.810 C 92.448 186.059,92.344 187.406,92.236 191.336 C 92.129 195.285,92.027 196.589,91.813 196.766 C 91.407 197.103,91.407 203.107,91.813 203.444 C 92.027 203.622,92.127 204.839,92.224 208.440 C 92.323 212.100,92.422 213.281,92.651 213.544 C 92.854 213.778,92.993 214.723,93.090 216.510 C 93.184 218.267,93.327 219.240,93.521 219.456 C 93.686 219.641,93.874 220.544,93.959 221.568 C 94.040 222.551,94.226 223.498,94.371 223.672 C 94.515 223.845,94.700 224.603,94.781 225.355 C 94.863 226.107,95.052 226.865,95.202 227.038 C 95.352 227.212,95.542 227.969,95.623 228.722 C 95.704 229.474,95.916 230.251,96.094 230.447 C 96.282 230.656,96.463 231.380,96.528 232.181 C 96.590 232.963,96.762 233.660,96.925 233.795 C 97.083 233.926,97.212 234.199,97.212 234.400 C 97.212 234.602,97.402 235.009,97.634 235.304 C 97.867 235.600,98.116 236.274,98.189 236.803 C 98.261 237.332,98.448 237.871,98.604 238.000 C 98.759 238.129,98.948 238.697,99.023 239.261 C 99.098 239.825,99.289 240.395,99.448 240.527 C 99.607 240.659,99.737 240.932,99.737 241.134 C 99.737 241.335,99.927 241.742,100.159 242.037 C 100.392 242.333,100.642 243.012,100.715 243.547 C 100.803 244.184,100.984 244.592,101.240 244.729 C 101.484 244.860,101.631 245.170,101.631 245.555 C 101.631 245.956,101.778 246.250,102.052 246.397 C 102.319 246.540,102.472 246.837,102.472 247.213 C 102.472 247.538,102.662 247.976,102.893 248.185 C 103.125 248.395,103.314 248.773,103.314 249.027 C 103.314 249.280,103.503 249.659,103.735 249.868 C 103.966 250.078,104.156 250.457,104.156 250.710 C 104.156 250.964,104.345 251.342,104.577 251.552 C 104.808 251.761,104.997 252.112,104.997 252.331 C 104.997 252.551,105.329 253.071,105.734 253.488 C 106.139 253.905,106.470 254.414,106.470 254.619 C 106.470 254.824,106.707 255.273,106.996 255.617 C 107.286 255.960,107.522 256.398,107.522 256.590 C 107.522 256.782,107.854 257.280,108.259 257.697 C 108.664 258.114,108.995 258.622,108.995 258.826 C 108.995 259.030,109.374 259.603,109.837 260.099 C 110.300 260.596,110.679 261.164,110.679 261.362 C 110.679 261.560,111.105 262.179,111.625 262.738 C 112.146 263.297,112.572 263.921,112.572 264.125 C 112.572 264.328,113.140 265.077,113.835 265.789 C 114.529 266.501,115.097 267.255,115.097 267.466 C 115.097 267.676,116.233 269.011,117.621 270.431 C 119.009 271.852,120.145 273.181,120.146 273.386 C 120.148 273.871,126.340 280.063,126.825 280.065 C 127.029 280.066,128.359 281.202,129.779 282.590 C 131.200 283.978,132.534 285.113,132.745 285.113 C 132.955 285.113,133.710 285.681,134.421 286.376 C 135.133 287.070,135.882 287.638,136.086 287.638 C 136.289 287.638,136.913 288.064,137.472 288.585 C 138.031 289.106,138.651 289.532,138.849 289.532 C 139.047 289.532,139.615 289.911,140.111 290.373 C 140.608 290.836,141.181 291.215,141.385 291.215 C 141.589 291.215,142.097 291.547,142.514 291.952 C 142.931 292.357,143.429 292.688,143.620 292.688 C 143.812 292.688,144.250 292.925,144.594 293.214 C 144.938 293.503,145.387 293.740,145.591 293.740 C 145.796 293.740,146.305 294.072,146.722 294.477 C 147.181 294.922,147.690 295.213,148.010 295.213 C 148.323 295.213,148.630 295.384,148.764 295.634 C 148.910 295.908,149.204 296.055,149.605 296.055 C 150.007 296.055,150.301 296.202,150.447 296.476 C 150.594 296.749,150.888 296.896,151.289 296.896 C 151.690 296.896,151.984 297.043,152.130 297.317 C 152.277 297.591,152.571 297.738,152.972 297.738 C 153.358 297.738,153.667 297.885,153.798 298.129 C 153.935 298.385,154.343 298.566,154.980 298.653 C 155.515 298.727,156.194 298.977,156.490 299.209 C 156.785 299.442,157.192 299.632,157.393 299.632 C 157.595 299.632,157.878 299.774,158.022 299.947 C 158.166 300.121,158.553 300.263,158.882 300.263 C 159.251 300.263,159.561 300.414,159.690 300.656 C 159.832 300.921,160.238 301.093,160.938 301.186 C 161.509 301.262,162.082 301.452,162.212 301.608 C 162.342 301.765,162.910 301.954,163.474 302.029 C 164.039 302.104,164.607 302.293,164.737 302.450 C 164.867 302.607,165.435 302.796,165.999 302.871 C 166.564 302.946,167.131 303.134,167.260 303.290 C 167.390 303.446,167.937 303.634,168.477 303.708 C 169.017 303.782,169.608 303.972,169.790 304.130 C 169.972 304.288,170.720 304.468,171.452 304.531 C 172.183 304.593,172.941 304.783,173.135 304.953 C 173.348 305.139,174.197 305.320,175.276 305.410 C 176.343 305.499,177.201 305.681,177.401 305.861 C 177.606 306.045,178.430 306.214,179.506 306.292 C 180.491 306.364,181.416 306.545,181.596 306.700 C 181.804 306.880,182.849 307.029,184.542 307.121 C 186.505 307.226,187.263 307.348,187.555 307.603 C 188.160 308.131,212.067 308.121,212.655 307.593 C 212.954 307.325,213.678 307.206,215.726 307.091 C 217.502 306.991,218.483 306.848,218.633 306.667 C 218.767 306.505,219.622 306.335,220.736 306.248 C 221.856 306.160,222.704 305.990,222.840 305.827 C 222.976 305.663,223.824 305.494,224.944 305.406 C 226.082 305.317,226.912 305.150,227.052 304.981 C 227.179 304.828,227.725 304.639,228.265 304.561 C 228.806 304.483,229.390 304.301,229.563 304.155 C 229.737 304.009,230.512 303.824,231.286 303.744 C 232.077 303.663,232.801 303.469,232.939 303.303 C 233.074 303.140,233.647 302.946,234.211 302.871 C 234.775 302.796,235.344 302.607,235.474 302.450 C 235.603 302.293,236.172 302.104,236.736 302.029 C 237.300 301.954,237.870 301.763,238.002 301.604 C 238.134 301.445,238.407 301.315,238.609 301.315 C 238.810 301.315,239.217 301.125,239.512 300.893 C 239.808 300.660,240.482 300.411,241.011 300.338 C 241.540 300.266,242.081 300.077,242.212 299.919 C 242.343 299.761,242.615 299.632,242.817 299.632 C 243.019 299.632,243.424 299.442,243.719 299.211 C 244.013 298.979,244.392 298.790,244.560 298.790 C 244.729 298.790,245.109 298.600,245.404 298.368 C 245.699 298.135,246.379 297.885,246.914 297.812 C 247.550 297.725,247.959 297.543,248.096 297.287 C 248.227 297.043,248.536 296.896,248.922 296.896 C 249.323 296.896,249.617 296.749,249.763 296.476 C 249.897 296.226,250.204 296.055,250.518 296.055 C 250.837 296.055,251.346 295.764,251.805 295.318 C 252.222 294.913,252.731 294.582,252.936 294.582 C 253.140 294.582,253.589 294.345,253.933 294.056 C 254.277 293.766,254.754 293.530,254.994 293.530 C 255.234 293.530,255.531 293.340,255.655 293.109 C 255.788 292.860,256.095 292.688,256.407 292.688 C 256.735 292.688,257.264 292.371,257.810 291.846 C 258.291 291.383,258.859 291.005,259.072 291.005 C 259.285 291.005,259.853 290.626,260.335 290.163 C 260.816 289.700,261.383 289.321,261.593 289.321 C 261.804 289.321,262.506 288.801,263.152 288.164 C 263.799 287.528,264.500 287.007,264.710 287.007 C 264.921 287.007,265.733 286.391,266.515 285.639 C 267.298 284.887,268.126 284.271,268.357 284.271 C 268.910 284.271,284.271 268.914,284.272 268.360 C 284.272 268.142,285.029 267.182,285.955 266.227 C 286.881 265.271,287.638 264.320,287.638 264.112 C 287.638 263.905,288.017 263.341,288.480 262.860 C 288.943 262.378,289.321 261.810,289.321 261.597 C 289.321 261.384,289.700 260.816,290.163 260.335 C 290.626 259.853,291.005 259.285,291.005 259.072 C 291.005 258.859,291.383 258.291,291.846 257.810 C 292.371 257.264,292.688 256.735,292.688 256.407 C 292.688 256.095,292.860 255.788,293.109 255.655 C 293.340 255.531,293.530 255.234,293.530 254.994 C 293.530 254.754,293.766 254.277,294.056 253.933 C 294.345 253.589,294.582 253.165,294.582 252.989 C 294.582 252.814,294.771 252.430,295.003 252.135 C 295.234 251.841,295.423 251.462,295.423 251.294 C 295.423 251.125,295.613 250.746,295.844 250.452 C 296.076 250.158,296.265 249.779,296.265 249.610 C 296.265 249.442,296.454 249.063,296.686 248.769 C 296.917 248.474,297.107 248.096,297.107 247.927 C 297.107 247.758,297.296 247.380,297.528 247.085 C 297.759 246.791,297.948 246.412,297.948 246.244 C 297.948 246.075,298.138 245.696,298.369 245.402 C 298.601 245.108,298.790 244.702,298.790 244.500 C 298.790 244.299,298.932 244.016,299.106 243.872 C 299.279 243.728,299.421 243.341,299.421 243.012 C 299.421 242.644,299.572 242.333,299.812 242.204 C 300.068 242.067,300.250 241.659,300.337 241.022 C 300.410 240.487,300.660 239.808,300.893 239.512 C 301.125 239.217,301.315 238.810,301.315 238.609 C 301.315 238.407,301.445 238.134,301.604 238.002 C 301.763 237.870,301.954 237.300,302.029 236.736 C 302.104 236.172,302.293 235.603,302.450 235.474 C 302.607 235.344,302.796 234.775,302.871 234.211 C 302.946 233.647,303.142 233.073,303.307 232.936 C 303.482 232.791,303.667 232.079,303.751 231.234 C 303.829 230.435,304.019 229.677,304.171 229.550 C 304.324 229.424,304.514 228.666,304.592 227.867 C 304.671 227.068,304.858 226.312,305.009 226.187 C 305.159 226.062,305.348 225.327,305.428 224.553 C 305.507 223.779,305.693 223.004,305.840 222.830 C 305.986 222.656,306.173 221.691,306.254 220.684 C 306.341 219.595,306.513 218.761,306.677 218.625 C 306.868 218.466,307.000 217.442,307.103 215.300 C 307.221 212.886,307.330 212.118,307.598 211.814 C 308.122 211.222,308.126 188.154,307.603 187.555 C 307.348 187.263,307.226 186.505,307.121 184.542 C 307.029 182.849,306.880 181.804,306.700 181.596 C 306.545 181.416,306.364 180.491,306.292 179.506 C 306.214 178.430,306.045 177.606,305.861 177.401 C 305.681 177.201,305.499 176.343,305.410 175.276 C 305.320 174.197,305.139 173.348,304.953 173.135 C 304.783 172.941,304.593 172.183,304.531 171.452 C 304.468 170.720,304.288 169.972,304.130 169.790 C 303.972 169.608,303.782 169.017,303.708 168.477 C 303.634 167.937,303.446 167.390,303.290 167.260 C 303.134 167.131,302.946 166.564,302.871 165.999 C 302.796 165.435,302.607 164.867,302.450 164.737 C 302.293 164.607,302.104 164.039,302.029 163.474 C 301.954 162.910,301.765 162.342,301.608 162.212 C 301.452 162.082,301.262 161.509,301.186 160.938 C 301.093 160.238,300.921 159.832,300.656 159.690 C 300.414 159.561,300.263 159.251,300.263 158.882 C 300.263 158.553,300.121 158.166,299.947 158.022 C 299.774 157.878,299.632 157.595,299.632 157.393 C 299.632 157.192,299.442 156.785,299.209 156.490 C 298.977 156.194,298.727 155.515,298.653 154.980 C 298.566 154.343,298.385 153.935,298.129 153.798 C 297.885 153.667,297.738 153.358,297.738 152.972 C 297.738 152.571,297.591 152.277,297.317 152.130 C 297.043 151.984,296.896 151.690,296.896 151.289 C 296.896 150.888,296.749 150.594,296.476 150.447 C 296.226 150.314,296.055 150.007,296.055 149.693 C 296.055 149.373,295.764 148.864,295.318 148.405 C 294.913 147.988,294.582 147.485,294.582 147.287 C 294.582 147.089,294.392 146.686,294.161 146.392 C 293.930 146.098,293.740 145.713,293.740 145.538 C 293.740 145.363,293.503 144.938,293.214 144.594 C 292.925 144.250,292.688 143.812,292.688 143.620 C 292.688 143.429,292.357 142.931,291.952 142.514 C 291.547 142.097,291.215 141.589,291.215 141.385 C 291.215 141.181,290.836 140.608,290.373 140.111 C 289.911 139.615,289.532 139.047,289.532 138.849 C 289.532 138.651,289.106 138.031,288.585 137.472 C 288.064 136.913,287.638 136.289,287.638 136.086 C 287.638 135.882,287.070 135.133,286.376 134.421 C 285.681 133.710,285.113 132.955,285.113 132.745 C 285.113 132.534,283.978 131.200,282.590 129.779 C 281.202 128.359,280.066 127.029,280.065 126.825 C 280.063 126.336,273.026 119.306,272.539 119.306 C 272.332 119.306,271.192 118.359,270.005 117.201 C 268.818 116.044,267.675 115.097,267.465 115.097 C 267.255 115.097,266.501 114.529,265.789 113.835 C 265.077 113.140,264.320 112.572,264.106 112.572 C 263.892 112.572,263.134 112.004,262.422 111.310 C 261.657 110.563,260.944 110.047,260.678 110.047 C 260.430 110.047,260.008 109.811,259.740 109.521 C 259.471 109.232,259.073 108.995,258.853 108.995 C 258.634 108.995,258.114 108.664,257.697 108.259 C 257.280 107.854,256.763 107.522,256.549 107.522 C 256.336 107.522,255.766 107.144,255.285 106.681 C 254.739 106.156,254.210 105.839,253.882 105.839 C 253.571 105.839,253.263 105.667,253.130 105.418 C 252.983 105.144,252.689 104.997,252.288 104.997 C 251.887 104.997,251.593 104.850,251.447 104.577 C 251.321 104.342,251.006 104.156,250.735 104.156 C 250.468 104.156,250.078 103.966,249.868 103.735 C 249.659 103.503,249.280 103.314,249.027 103.314 C 248.773 103.314,248.395 103.125,248.185 102.893 C 247.976 102.662,247.538 102.472,247.213 102.472 C 246.837 102.472,246.540 102.319,246.397 102.052 C 246.250 101.778,245.956 101.631,245.555 101.631 C 245.170 101.631,244.860 101.484,244.729 101.240 C 244.592 100.984,244.184 100.803,243.547 100.715 C 243.012 100.642,242.333 100.392,242.037 100.159 C 241.742 99.927,241.335 99.737,241.134 99.737 C 240.932 99.737,240.659 99.607,240.527 99.448 C 240.395 99.289,239.825 99.098,239.261 99.023 C 238.697 98.948,238.119 98.747,237.976 98.575 C 237.834 98.404,237.449 98.264,237.120 98.264 C 236.746 98.264,236.441 98.113,236.306 97.860 C 236.140 97.550,235.759 97.422,234.668 97.309 C 233.886 97.229,233.104 97.043,232.930 96.897 C 232.756 96.752,232.172 96.569,231.632 96.491 C 231.092 96.413,230.540 96.217,230.406 96.056 C 230.266 95.888,229.537 95.700,228.709 95.618 C 227.910 95.539,227.154 95.352,227.029 95.202 C 226.904 95.051,226.169 94.863,225.395 94.783 C 224.621 94.703,223.845 94.518,223.672 94.371 C 223.498 94.224,222.532 94.038,221.526 93.957 C 220.430 93.868,219.603 93.698,219.465 93.531 C 219.316 93.352,218.432 93.200,216.982 93.105 C 215.539 93.009,214.609 92.850,214.394 92.662 C 214.134 92.433,212.805 92.337,208.447 92.231 C 204.148 92.126,202.781 92.028,202.602 91.813 C 202.268 91.410,197.101 91.410,196.766 91.813 M205.975 139.163 C 206.142 139.364,207.038 139.497,208.936 139.602 C 210.797 139.705,211.731 139.842,211.891 140.035 C 212.020 140.190,212.758 140.382,213.532 140.462 C 214.306 140.542,215.082 140.726,215.255 140.872 C 215.429 141.018,216.013 141.201,216.553 141.279 C 217.093 141.356,217.639 141.545,217.767 141.699 C 217.894 141.852,218.460 142.039,219.024 142.113 C 219.589 142.188,220.157 142.378,220.287 142.534 C 220.417 142.691,220.985 142.880,221.549 142.955 C 222.113 143.030,222.692 143.231,222.834 143.403 C 222.976 143.574,223.302 143.714,223.560 143.714 C 223.817 143.714,224.199 143.903,224.408 144.135 C 224.618 144.366,225.055 144.555,225.380 144.555 C 225.756 144.555,226.054 144.709,226.197 144.976 C 226.343 145.250,226.637 145.397,227.038 145.397 C 227.439 145.397,227.734 145.544,227.880 145.818 C 228.017 146.073,228.321 146.239,228.652 146.239 C 228.966 146.239,229.408 146.464,229.687 146.765 C 229.955 147.054,230.354 147.291,230.573 147.291 C 230.792 147.291,231.313 147.622,231.730 148.027 C 232.147 148.432,232.663 148.764,232.877 148.764 C 233.091 148.764,233.660 149.143,234.142 149.605 C 234.624 150.068,235.199 150.447,235.420 150.447 C 235.642 150.447,236.593 151.205,237.533 152.130 C 238.474 153.056,239.408 153.814,239.609 153.814 C 240.089 153.814,246.397 160.117,246.397 160.596 C 246.397 160.800,247.154 161.736,248.080 162.677 C 249.006 163.618,249.763 164.569,249.763 164.790 C 249.763 165.011,250.142 165.587,250.605 166.068 C 251.068 166.550,251.447 167.119,251.447 167.333 C 251.447 167.547,251.778 168.063,252.183 168.480 C 252.588 168.897,252.920 169.406,252.920 169.611 C 252.920 169.816,253.156 170.265,253.446 170.609 C 253.735 170.952,253.972 171.419,253.972 171.644 C 253.972 171.870,254.161 172.226,254.392 172.436 C 254.624 172.645,254.813 173.027,254.813 173.284 C 254.813 173.541,254.955 173.870,255.129 174.014 C 255.302 174.158,255.445 174.441,255.445 174.642 C 255.445 174.844,255.634 175.250,255.865 175.544 C 256.097 175.838,256.286 176.217,256.286 176.386 C 256.286 176.554,256.472 176.929,256.700 177.218 C 256.928 177.508,257.177 178.160,257.254 178.667 C 257.331 179.175,257.519 179.734,257.672 179.911 C 257.825 180.087,258.014 180.656,258.093 181.173 C 258.171 181.691,258.361 182.259,258.513 182.436 C 258.666 182.612,258.856 183.181,258.934 183.698 C 259.013 184.216,259.199 184.782,259.348 184.955 C 259.496 185.129,259.684 186.076,259.766 187.059 C 259.848 188.043,260.041 188.993,260.195 189.170 C 260.385 189.388,260.523 190.493,260.622 192.590 C 260.726 194.784,260.852 195.757,261.052 195.923 C 261.475 196.274,261.463 203.946,261.040 204.297 C 260.824 204.477,260.703 205.389,260.593 207.686 C 260.487 209.876,260.357 210.899,260.163 211.060 C 260.010 211.187,259.821 211.944,259.742 212.743 C 259.664 213.542,259.476 214.298,259.326 214.423 C 259.175 214.548,258.987 215.283,258.907 216.057 C 258.827 216.831,258.642 217.607,258.497 217.780 C 258.351 217.954,258.168 218.538,258.090 219.078 C 258.012 219.618,257.811 220.174,257.644 220.314 C 257.476 220.453,257.338 220.836,257.338 221.165 C 257.338 221.533,257.188 221.844,256.947 221.972 C 256.691 222.109,256.510 222.518,256.423 223.154 C 256.349 223.689,256.099 224.369,255.867 224.664 C 255.635 224.960,255.445 225.339,255.445 225.508 C 255.445 225.677,255.255 226.055,255.024 226.350 C 254.792 226.644,254.603 227.023,254.603 227.191 C 254.603 227.360,254.413 227.739,254.182 228.033 C 253.951 228.327,253.761 228.730,253.761 228.928 C 253.761 229.126,253.430 229.630,253.025 230.047 C 252.620 230.464,252.288 231.012,252.288 231.265 C 252.288 231.518,252.052 231.944,251.762 232.212 C 251.473 232.480,251.236 232.883,251.236 233.107 C 251.236 233.332,250.715 234.044,250.079 234.691 C 249.442 235.338,248.922 236.046,248.922 236.266 C 248.922 236.485,248.164 237.434,247.238 238.375 C 246.312 239.316,245.555 240.250,245.555 240.450 C 245.555 240.929,240.936 245.555,240.457 245.555 C 240.253 245.555,239.316 246.312,238.375 247.238 C 237.434 248.164,236.485 248.922,236.266 248.922 C 236.046 248.922,235.338 249.442,234.691 250.079 C 234.044 250.715,233.332 251.236,233.107 251.236 C 232.883 251.236,232.480 251.473,232.212 251.762 C 231.944 252.052,231.518 252.288,231.265 252.288 C 231.012 252.288,230.464 252.620,230.047 253.025 C 229.630 253.430,229.126 253.761,228.928 253.761 C 228.730 253.761,228.327 253.951,228.033 254.182 C 227.739 254.413,227.360 254.603,227.191 254.603 C 227.023 254.603,226.644 254.792,226.350 255.024 C 226.055 255.255,225.677 255.445,225.508 255.445 C 225.339 255.445,224.960 255.635,224.664 255.867 C 224.369 256.099,223.689 256.349,223.154 256.423 C 222.518 256.510,222.109 256.691,221.972 256.947 C 221.844 257.188,221.533 257.338,221.165 257.338 C 220.836 257.338,220.453 257.476,220.314 257.644 C 220.174 257.811,219.618 258.012,219.078 258.090 C 218.538 258.168,217.954 258.350,217.780 258.495 C 217.607 258.639,216.849 258.824,216.097 258.906 C 215.345 258.987,214.587 259.176,214.413 259.326 C 214.240 259.477,213.482 259.666,212.730 259.747 C 211.978 259.829,211.213 260.030,211.030 260.195 C 210.786 260.415,209.773 260.531,207.189 260.633 C 204.647 260.733,203.614 260.849,203.444 261.054 C 203.105 261.463,196.263 261.462,195.923 261.052 C 195.757 260.852,194.784 260.726,192.590 260.622 C 190.503 260.524,189.387 260.385,189.170 260.197 C 188.993 260.043,188.249 259.866,187.517 259.804 C 186.785 259.741,186.028 259.552,185.834 259.383 C 185.640 259.214,184.883 259.025,184.151 258.962 C 183.419 258.899,182.661 258.710,182.467 258.542 C 182.273 258.374,181.691 258.171,181.173 258.093 C 180.656 258.014,180.087 257.825,179.911 257.672 C 179.734 257.519,179.175 257.331,178.667 257.254 C 178.160 257.177,177.508 256.928,177.218 256.700 C 176.929 256.472,176.554 256.286,176.386 256.286 C 176.217 256.286,175.838 256.097,175.544 255.865 C 175.250 255.634,174.844 255.445,174.642 255.445 C 174.441 255.445,174.158 255.302,174.014 255.129 C 173.870 254.955,173.541 254.813,173.284 254.813 C 173.027 254.813,172.645 254.624,172.436 254.392 C 172.226 254.161,171.870 253.972,171.644 253.972 C 171.419 253.972,170.952 253.735,170.609 253.446 C 170.265 253.156,169.816 252.920,169.611 252.920 C 169.406 252.920,168.897 252.588,168.480 252.183 C 168.063 251.778,167.547 251.447,167.333 251.447 C 167.119 251.447,166.550 251.068,166.068 250.605 C 165.587 250.142,165.011 249.763,164.790 249.763 C 164.569 249.763,163.618 249.006,162.677 248.080 C 161.736 247.154,160.802 246.397,160.601 246.397 C 160.122 246.397,153.814 240.093,153.814 239.614 C 153.814 239.411,153.056 238.474,152.130 237.533 C 151.205 236.593,150.447 235.642,150.447 235.420 C 150.447 235.199,150.068 234.624,149.605 234.142 C 149.143 233.660,148.764 233.091,148.764 232.877 C 148.764 232.663,148.432 232.147,148.027 231.730 C 147.622 231.313,147.291 230.804,147.291 230.599 C 147.291 230.395,147.054 229.946,146.765 229.602 C 146.476 229.258,146.239 228.781,146.239 228.541 C 146.239 228.301,146.049 228.004,145.818 227.880 C 145.544 227.734,145.397 227.439,145.397 227.038 C 145.397 226.637,145.250 226.343,144.976 226.197 C 144.709 226.054,144.555 225.756,144.555 225.380 C 144.555 225.055,144.366 224.618,144.135 224.408 C 143.903 224.199,143.714 223.817,143.714 223.560 C 143.714 223.302,143.574 222.976,143.403 222.834 C 143.231 222.692,143.030 222.113,142.955 221.549 C 142.880 220.985,142.691 220.417,142.534 220.287 C 142.378 220.157,142.188 219.589,142.113 219.024 C 142.039 218.460,141.852 217.894,141.699 217.767 C 141.545 217.639,141.356 217.093,141.279 216.553 C 141.201 216.013,141.018 215.429,140.872 215.255 C 140.726 215.082,140.542 214.306,140.462 213.532 C 140.382 212.758,140.190 212.020,140.035 211.891 C 139.842 211.731,139.705 210.797,139.602 208.936 C 139.497 207.038,139.364 206.142,139.163 205.975 C 138.729 205.615,138.739 193.746,139.173 193.386 C 139.378 193.216,139.518 192.418,139.621 190.839 C 139.717 189.351,139.868 188.458,140.047 188.309 C 140.200 188.182,140.389 187.425,140.468 186.626 C 140.547 185.826,140.734 185.071,140.885 184.946 C 141.035 184.821,141.224 184.086,141.303 183.312 C 141.383 182.538,141.567 181.762,141.712 181.589 C 141.856 181.415,142.038 180.858,142.115 180.350 C 142.192 179.843,142.441 179.191,142.669 178.902 C 142.896 178.612,143.083 178.211,143.083 178.009 C 143.083 177.807,143.225 177.524,143.398 177.380 C 143.572 177.236,143.714 176.849,143.714 176.520 C 143.714 176.153,143.865 175.842,144.105 175.713 C 144.361 175.576,144.542 175.167,144.629 174.531 C 144.703 173.996,144.953 173.317,145.185 173.021 C 145.417 172.726,145.608 172.322,145.608 172.124 C 145.608 171.926,145.939 171.422,146.344 171.005 C 146.749 170.588,147.080 170.090,147.080 169.899 C 147.080 169.707,147.317 169.269,147.607 168.925 C 147.896 168.581,148.133 168.138,148.133 167.939 C 148.133 167.740,148.511 167.171,148.974 166.675 C 149.437 166.178,149.816 165.613,149.816 165.419 C 149.816 165.225,150.526 164.333,151.394 163.436 C 152.279 162.522,152.972 161.623,152.972 161.389 C 152.972 160.841,160.867 152.972,161.417 152.972 C 161.636 152.972,162.532 152.262,163.408 151.394 C 164.285 150.526,165.175 149.816,165.387 149.816 C 165.599 149.816,166.178 149.437,166.675 148.974 C 167.171 148.511,167.740 148.133,167.939 148.133 C 168.138 148.133,168.581 147.896,168.925 147.607 C 169.269 147.317,169.747 147.080,169.986 147.080 C 170.226 147.080,170.523 146.891,170.647 146.660 C 170.794 146.386,171.088 146.239,171.489 146.239 C 171.890 146.239,172.184 146.092,172.330 145.818 C 172.477 145.544,172.771 145.397,173.172 145.397 C 173.573 145.397,173.867 145.250,174.014 144.976 C 174.160 144.703,174.454 144.555,174.855 144.555 C 175.256 144.555,175.550 144.408,175.697 144.135 C 175.841 143.865,176.138 143.714,176.520 143.714 C 176.849 143.714,177.235 143.574,177.377 143.403 C 177.519 143.231,178.102 143.029,178.673 142.954 C 179.372 142.861,179.779 142.688,179.920 142.423 C 180.050 142.181,180.360 142.031,180.729 142.031 C 181.058 142.031,181.434 141.901,181.565 141.744 C 181.696 141.586,182.439 141.392,183.216 141.312 C 184.006 141.231,184.788 141.025,184.988 140.844 C 185.191 140.660,185.920 140.471,186.676 140.407 C 187.408 140.344,188.148 140.171,188.322 140.022 C 188.520 139.852,189.640 139.695,191.318 139.600 C 193.172 139.495,194.072 139.360,194.237 139.162 C 194.588 138.738,205.623 138.740,205.975 139.163 " stroke="none" fill="#ffffff" fill-rule="evenodd"></path></g></svg>