<svg width="24.000000000000004" height="24.000000000000004" xmlns="http://www.w3.org/2000/svg">

 <g>
  <title>background</title>
  <rect fill="none" id="canvas_background" height="602" width="802" y="-1" x="-1"/>
 </g>
 <g>
  <title>Layer 1</title>
  <path id="svg_1" fill="none" d="m0,0l24,0l0,24l-24,0l0,-24z"/>
  <path stroke="#000000" fill="none" transform="rotate(180, 12, 12)" id="svg_2" d="m12,2c-5.52,0 -10,4.48 -10,10s4.48,10 10,10s10,-4.48 10,-10s-4.48,-10 -10,-10zm0,12l-4,-4l8,0l-4,4z"/>
  <path d="m11.22373,12.29658c0.15924,-0.03981 0.28169,-0.06438 0.31847,-0.07962c0.05201,-0.02154 0.07962,-0.03981 0.15924,-0.11943c0.03981,-0.03981 0.06741,-0.05807 0.11943,-0.07962c0.03678,-0.01523 0.15924,-0.07962 0.19904,-0.07962c0.03981,0 0.07962,0 0.11943,0.03981c0.07962,0.07962 0.11943,0.15924 0.19905,0.23885c0.03981,0.03981 0.07962,0.07962 0.11943,0.11943c0.07962,0.07962 0.22059,0.21969 0.39809,0.35828c0.18296,0.14285 0.27866,0.11943 0.31847,0.11943c0.03981,0 0.06741,0.01826 0.11943,0.03981c0.07356,0.03047 0.16236,0.03144 0.27866,0.07962c0.08224,0.03406 0.20117,0.06133 0.27866,0.07962c0.08663,0.02045 0.11943,0.07962 0.19905,0.11943c0.07962,0.03981 0.15222,0.09898 0.23885,0.11943c0.07749,0.01829 0.11943,0 0.15924,0c0.07962,0 0.15924,0.03981 0.15924,0c0,-0.03981 -0.11943,0 -0.23885,0c-0.11943,0 -0.20696,0.01862 -0.31847,-0.03981c-0.17631,-0.09238 -0.31847,-0.23885 -0.39809,-0.31847c-0.07962,-0.07962 -0.17302,-0.14751 -0.23885,-0.23885c-0.05205,-0.07221 -0.09788,-0.14703 -0.11943,-0.19905c-0.03047,-0.07356 -0.09898,-0.15222 -0.11943,-0.23885c-0.01829,-0.07749 -0.02458,-0.12246 -0.03981,-0.15924c-0.02154,-0.05201 -0.06738,-0.04721 -0.11943,-0.11943c-0.03292,-0.04567 -0.08265,-0.10419 -0.11943,-0.11943c-0.05201,-0.02154 -0.08702,-0.06738 -0.15924,-0.11943c-0.09134,-0.06584 -0.11356,-0.16613 -0.15924,-0.19905c-0.07221,-0.05205 -0.11943,-0.11943 -0.15924,-0.15924c-0.03981,-0.03981 -0.07962,-0.11943 -0.11943,-0.15924c-0.07962,-0.07962 -0.09128,-0.13109 -0.11943,-0.15924c-0.02815,-0.02815 -0.07962,0 -0.11943,0c-0.03981,0 -0.09199,0.0611 -0.15924,0.11943c-0.0951,0.08248 -0.16226,0.10419 -0.19904,0.11943c-0.05201,0.02154 -0.11244,0.0039 -0.15924,0.07962c-0.02093,0.03386 -0.0276,0.09788 -0.07962,0.11943c-0.03678,0.01523 -0.08702,0.06738 -0.15924,0.11943c-0.04567,0.03292 -0.07962,0.03981 -0.11943,0.07962c-0.03981,0.03981 -0.07962,0.07962 -0.11943,0.11943c-0.03981,0.03981 -0.08265,0.06438 -0.11943,0.07962c-0.05201,0.02154 -0.11943,0.11943 -0.15924,0.15924c-0.03981,0.03981 -0.07962,0.07962 -0.11943,0.11943c-0.03981,0.03981 -0.10419,0.04284 -0.11943,0.07962c-0.02154,0.05201 -0.08265,0.06438 -0.11943,0.07962c-0.05201,0.02154 -0.08702,0.06738 -0.15924,0.11943c-0.04567,0.03292 -0.08702,0.10719 -0.15924,0.15924c-0.04567,0.03292 -0.07962,0.07962 -0.11943,0.11943c-0.03981,0.03981 -0.03776,0.0517 -0.07962,0.11943c-0.0468,0.07572 -0.08265,0.06438 -0.11943,0.07962c-0.05201,0.02154 -0.06438,0.08265 -0.07962,0.11943c-0.02154,0.05201 -0.05147,0.05147 -0.07962,0.07962c-0.02815,0.02815 -0.03981,0.03981 0,0.03981c0.03981,0 0.07962,0 0.15924,0c0.11943,0 0.22934,0.05637 0.35828,0.11943c0.11309,0.05531 0.23661,0.08712 0.35828,0.11943c0.19619,0.0521 0.27866,0.07962 0.35828,0.07962c0.03981,0 0.07962,0 0.11943,0c0.03981,0 0.07962,0 0.15924,0c0.03981,0 0.12156,-0.01829 0.19904,0c0.08663,0.02045 0.19203,0.05917 0.27866,0.07962c0.15498,0.03658 0.31847,0.03981 0.47771,0.03981c0.15924,0 0.23885,0 0.31847,0c0.03981,0 0.11943,0.03981 0.19904,0.03981c0.07962,0 0.1653,0.03047 0.23885,0c0.05201,-0.02154 0.07962,-0.03981 0.11943,-0.03981c0.03981,0 0.12262,0.02744 0.23885,0c0.08663,-0.02045 0.19904,-0.07962 0.23885,-0.07962c0.03981,0 0.0726,-0.01936 0.15924,-0.03981c0.03874,-0.00915 0.07962,0 0.11943,0c0.03981,0 0.07962,-0.03981 0.11943,-0.03981c0.03981,0 0.08265,0.01523 0.11943,0c0.05201,-0.02154 0.07962,-0.03981 0.11943,-0.03981c0.03981,0 0.12156,0.01829 0.19905,0c0.08663,-0.02045 0.11943,-0.03981 0.15924,-0.03981c0.07962,0 0.11943,0 0.15924,0c0.03981,0 0,0 -0.03981,0c-0.15924,0 -0.39858,0.01761 -0.71656,0c-0.35993,-0.01993 -0.60033,-0.09199 -0.71656,-0.11943c-0.08663,-0.02045 -0.19433,-0.08719 -0.31847,-0.15924c-0.07699,-0.04468 -0.15924,-0.07962 -0.19905,-0.07962c-0.03981,0 -0.12156,-0.02152 -0.19904,-0.03981c-0.08663,-0.02045 -0.1603,-0.07047 -0.19904,-0.07962c-0.08663,-0.02045 -0.16833,-0.03391 -0.27866,-0.07962c-0.05201,-0.02154 -0.11943,-0.03981 -0.19904,-0.03981c-0.07962,0 -0.11241,-0.05917 -0.19905,-0.07962c-0.03874,-0.00915 -0.07962,0 -0.11943,0c-0.07962,0 -0.23885,0 -0.35828,0c-0.07962,0 -0.11943,0 -0.19904,0c-0.07962,0 -0.15924,0 -0.19905,0c-0.03981,0 -0.16548,0.06289 -0.39809,0.15924c-0.32896,0.13626 -0.4533,0.27538 -0.55733,0.31847c-0.03678,0.01523 -0.08265,-0.01523 -0.11943,0c-0.05201,0.02154 0.03879,0.04903 0.35828,0.07962c0.59573,0.05704 1.35226,0.0995 1.83121,0.11943c0.19887,0.00827 0.22665,-0.01826 0.27866,-0.03981c0.03678,-0.01523 0.07962,-0.03981 0.15924,-0.03981c0.11943,0 0.24005,0.01946 0.39809,0c0.16291,-0.02005 0.27866,-0.03981 0.31847,-0.03981c0.03981,0 0.11943,0 0.19904,0c0.03981,0 0.11943,0 0.19905,0c0.07962,0 0.19904,0 0.23885,0c0.03981,0 0.11943,0 0.19904,0c0.07962,0 0.11943,0 0.15924,0c0.03981,0 0.07962,0 0.11943,0c0.03981,0 0.11943,0 0.15924,0c0.03981,0 0.15924,0 0.19905,0c0.03981,0 0.15924,0.03981 0.23885,0.07962l0.03981,0.03981l0,0.03981" id="svg_4" stroke-width="null" stroke="#000000" fill="none"/>
 </g>
</svg>